<svg xmlns="http://www.w3.org/2000/svg" viewBox="0 0 280 260" role="img" aria-label="KUDOS · The Meaning Layer of Reality">
  <defs>
    <linearGradient id="vgrad" x1="0" y1="0" x2="1" y2="1">
      <stop offset="0%" stop-color="#c4b5fd" />
      <stop offset="100%" stop-color="#6d28d9" />
    </linearGradient>
    <radialGradient id="vhalo" cx="50%" cy="40%" r="55%">
      <stop offset="0%" stop-color="#a78bfa" stop-opacity="0.22" />
      <stop offset="100%" stop-color="#a78bfa" stop-opacity="0" />
    </radialGradient>
  </defs>
  <g transform="translate(92 4)">
    <circle cx="48" cy="44" r="56" fill="url(#vhalo)" />
    <path
      d="M 48 8
         C 28 8 12 24 12 44
         C 12 58 20 70 30 76
         L 48 92
         L 66 76
         C 76 70 84 58 84 44
         C 84 24 68 8 48 8 Z"
      fill="none"
      stroke="url(#vgrad)"
      stroke-width="4"
      stroke-linejoin="round"
    />
    <g stroke="url(#vgrad)" stroke-width="4.5" stroke-linecap="round" stroke-linejoin="round" fill="none">
      <line x1="34" y1="24" x2="34" y2="62" />
      <line x1="34" y1="44" x2="58" y2="24" />
      <line x1="34" y1="44" x2="58" y2="62" />
    </g>
    <circle cx="62" cy="24" r="4.2" fill="url(#vgrad)" />
  </g>
  <text
    x="140"
    y="170"
    text-anchor="middle"
    fill="#f8fafc"
    font-family="ui-serif, Georgia, serif"
    font-weight="200"
    font-size="42"
    letter-spacing="14"
  >KUDOS</text>
  <text
    x="140"
    y="208"
    text-anchor="middle"
    fill="#a78bfa"
    fill-opacity="0.85"
    font-family="ui-monospace, monospace"
    font-size="11"
    letter-spacing="6"
  >THE MEANING LAYER OF REALITY</text>
</svg>
