<svg xmlns="http://www.w3.org/2000/svg" viewBox="0 0 360 96" role="img" aria-label="KUDOS">
  <defs>
    <linearGradient id="lgrad" x1="0" y1="0" x2="1" y2="1">
      <stop offset="0%" stop-color="#c4b5fd" />
      <stop offset="100%" stop-color="#6d28d9" />
    </linearGradient>
  </defs>
  <g transform="translate(0 0)">
    <path
      d="M 48 8
         C 28 8 12 24 12 44
         C 12 58 20 70 30 76
         L 48 92
         L 66 76
         C 76 70 84 58 84 44
         C 84 24 68 8 48 8 Z"
      fill="none"
      stroke="url(#lgrad)"
      stroke-width="4"
      stroke-linejoin="round"
    />
    <g stroke="url(#lgrad)" stroke-width="4.5" stroke-linecap="round" stroke-linejoin="round" fill="none">
      <line x1="34" y1="24" x2="34" y2="62" />
      <line x1="34" y1="44" x2="58" y2="24" />
      <line x1="34" y1="44" x2="58" y2="62" />
    </g>
    <circle cx="62" cy="24" r="4.2" fill="url(#lgrad)" />
  </g>
  <text
    x="118"
    y="62"
    fill="#f8fafc"
    font-family="ui-serif, Georgia, 'Times New Roman', serif"
    font-weight="200"
    font-size="44"
    letter-spacing="12"
  >K</text>
  <text
    x="158"
    y="62"
    fill="#f8fafc"
    font-family="ui-serif, Georgia, 'Times New Roman', serif"
    font-weight="200"
    font-size="44"
    letter-spacing="12"
  >UD</text>
  <g transform="translate(228 24)">
    <circle cx="20" cy="20" r="18" fill="none" stroke="#f8fafc" stroke-width="2" />
    <circle cx="20" cy="20" r="3.6" fill="url(#lgrad)" />
  </g>
  <text
    x="270"
    y="62"
    fill="#f8fafc"
    font-family="ui-serif, Georgia, 'Times New Roman', serif"
    font-weight="200"
    font-size="44"
    letter-spacing="12"
  >S</text>
</svg>
